<?xml version="1.0" encoding="UTF-8"?>
<svg width="475px" height="188px" viewBox="0 0 475 188" version="1.1" xmlns="http://www.w3.org/2000/svg" xmlns:xlink="http://www.w3.org/1999/xlink">
    <!-- Generator: sketchtool 53.2 (72643) - https://sketchapp.com -->
    <title>E4A93FF1-636D-4483-9F4B-D2243A7186E9</title>
    <desc>Created with sketchtool.</desc>
    <g id="Asset-Board" stroke="none" stroke-width="1" fill="none" fill-rule="evenodd">
        <g transform="translate(-32.000000, -1791.000000)" id="Emprty-States">
            <g transform="translate(25.000000, 1686.000000)">
                <g id="In-app-Illustrations/General/NoConnection" transform="translate(7.000000, 43.000000)">
                    <g id="ig_NoConnection" transform="translate(0.000000, -0.500000)">
                        <rect id="Rectangle-path" x="0" y="0" width="475" height="250"></rect>
                        <path d="M1,249.5 L474,249.5" id="Shape" stroke="#DADADA" stroke-linecap="round"></path>
                        <path d="M268.11,144.23 L265.45,144.23 L265.45,63.73 L275.45,63.73 C278.55384,63.73 281.07,66.2461597 281.07,69.35 L304.47,69.35 C313.654448,69.3553028 322.460617,73.0088968 328.951252,79.5070326 C335.441886,86.0051685 339.085306,94.8155525 339.08,104 L339.08,104 C339.08,104.92 339.08,105.84 338.97,106.75" id="Shape" stroke="#738795" stroke-linecap="round" stroke-linejoin="round"></path>
                        <path d="M339.08,103.81 L345.18,103.81 C355.67341,103.81 364.18,112.31659 364.18,122.81 L364.18,167.19 C364.18,177.68341 372.68659,186.19 383.18,186.19 L396.07,186.19" id="Shape" stroke="#738795" stroke-linecap="round" stroke-linejoin="round"></path>
                        <path d="M265.38,83.43 L232.09,83.43" id="Shape" stroke="#738795" stroke-linecap="round" stroke-linejoin="round"></path>
                        <path d="M265.38,123.51 L232.09,123.51" id="Shape" stroke="#738795" stroke-linecap="round" stroke-linejoin="round"></path>
                        <path d="M281,69.17 L281,131.43" id="Shape" stroke="#738795" stroke-linecap="round" stroke-linejoin="round"></path>
                        <path d="M146.83,129.21 C153.244396,135.260215 161.732439,138.623943 170.55,138.61 L194,138.61 C194,141.71384 196.51616,144.23 199.62,144.23 L209.62,144.23 L209.62,74.23" id="Shape" stroke="#738795" stroke-linecap="round" stroke-linejoin="round"></path>
                        <path d="M209.55,67.38 L209.55,63.73 L199.55,63.73 C196.473531,63.768322 193.999761,66.2732922 194,69.35 L170.6,69.35 C161.403426,69.3367201 152.579264,72.9821107 146.073485,79.4822625 C139.567705,85.9824143 135.914679,94.8034184 135.92,104 L135.92,104 C135.913235,111.166663 138.139766,118.157341 142.29,124 L142.93,124.87" id="Shape" stroke="#738795" stroke-linecap="round" stroke-linejoin="round"></path>
                        <path d="M135.92,103.81 L129.82,103.81 C119.32659,103.81 110.82,112.31659 110.82,122.81 L110.82,167.19 C110.82,177.68341 102.31341,186.19 91.82,186.19 L78.86,186.19" id="Shape" stroke="#738795" stroke-linecap="round" stroke-linejoin="round"></path>
                        <path d="M194,69.17 L194,131.43" id="Shape" stroke="#738795" stroke-linecap="round" stroke-linejoin="round"></path>
                        <path d="M275.43,144.23 C278.53384,144.23 281.05,141.71384 281.05,138.61 L304.45,138.61 C320.250328,138.604098 334.045619,127.910073 337.99,112.61" id="Shape" stroke="#74E5FF" stroke-width="2" stroke-linecap="round"></path>
                    </g>
                </g>
            </g>
        </g>
    </g>
</svg>